<?xml version="1.0" encoding="utf8" standalone="no"?>
<svg viewBox="0 0 388.44113 30.455008" xmlns="http://www.w3.org/2000/svg">
<g transform="translate(42.79199,-725.70609)">
<path d="m146.86297,750.11179c5.80942-3.48565 6.23651-6.11543 5.99521-12.14822-.23665-5.91632-4.18088-9.30837-9.46615-11.35938s-11.43824-.39441-14.1992,2.99764c-2.82489,3.47055-2.6032,7.09958.15776,9.62389 1.86393,1.70415 4.02311,0 3.94424-1.5777-.10867-2.1734-4.57531-1.65657-1.26215-5.20636 2.24325-2.4035 6.86293-2.12987 9.30835.63107s3.77275,7.74049.47332,10.41274c-9.54502,7.73069-21.21993-4.18086-30.29165-4.10199s-13.93065,9.38653-25.55858,8.99285c-21.09419-.71418-34.70917-19.56335-59.0056-19.72113-11.51797-.07529-28.88111,16.03026-37.54902,17.67014-20.43107,3.86534-31.63268-10.09723-32.18487-9.78169s12.70041,15.3036 32.81594,12.30598c9.72286-1.4489 27.60475-16.44622 37.86457-16.09242 22.87651.78883 34.43113,17.88917 57.42792,20.03665 11.86594,1.10806 18.93228-6.86295 26.82071-7.0996s21.29883,12.46374 34.7092,4.41753z"/>
<path d="m155.99417,750.11179c-5.80942-3.48565-6.23653-6.11543-5.99521-12.14822 .23665-5.91632 4.18088-9.30837 9.46613-11.35938s11.43826-.39441 14.1992,2.99764c2.8249,3.47055 2.6032,7.09958-.15776,9.62389-1.86391,1.70415-4.0231,0-3.94423-1.5777 .10868-2.1734 4.5753-1.65657 1.26216-5.20636-2.24325-2.4035-6.86293-2.12987-9.30837.63107s-3.77275,7.74049-.4733,10.41274c9.54502,7.73069 21.21993-4.18086 30.29163-4.10199s13.93065,9.38653 25.55859,8.99285c21.0942-.71418 34.70917-19.56335 59.00559-19.72113 11.51799-.07529 28.8811,16.03026 37.54904,17.67014 20.43106,3.86534 31.63267-10.09723 32.18487-9.78169s-12.70042,15.3036-32.81594,12.30598c-9.72287-1.4489-27.60476-16.44622-37.86458-16.09242-22.87651.78883-34.43112,17.88917-57.42791,20.03665-11.86594,1.10806-18.93228-6.86295-26.82073-7.0996s-21.29881,12.46374-34.70918,4.41753z"/>
<path d="m11.78806,739.02097c-4.07996,2.44796-4.37992,4.29484-4.21045,8.5317 .1662,4.15505 2.93624,6.53728 6.64808,7.97769s8.0331.277 9.97212-2.10523c1.98392-2.43737 1.82822-4.98606-.1108-6.75888-1.30903-1.19683-2.82544,0-2.77004,1.10802 .07632,1.52638 3.21324,1.1634.88641,3.65644-1.57544,1.68798-4.81985,1.49582-6.53728-.4432s-2.6496-5.43615-.33241-7.31289c6.70348-5.42926 20.83065,10.96932 37.89405,11.08013 8.08908.05288 20.28323-11.25806 26.37071-12.40975 14.34878-2.71464 22.21565,7.09129 22.60347,6.86967s-8.91952-10.74771-23.04668-8.64248c-6.82837,1.01755-19.38684,11.55019-26.59231,11.30172-16.06619-.55401-31.35677-18.50381-40.77488-12.85294z"/>
<path d="m288.63181,739.02097c4.07997,2.44796 4.37993,4.29484 4.21046,8.5317-.16622,4.15505-2.93625,6.53728-6.64808,7.97769s-8.03309.277-9.97212-2.10523c-1.98391-2.43737-1.82823-4.98606.11081-6.75888 1.30902-1.19683 2.82543,0 2.77002,1.10802-.07632,1.52638-3.21324,1.1634-.88642,3.65644 1.57544,1.68798 4.81987,1.49582 6.53729-.4432s2.6496-5.43615.33241-7.31289c-6.70348-5.42926-20.83066,10.96932-37.89406,11.08013-8.08907.05288-20.28322-11.25806-26.37071-12.40975-14.34876-2.71464-22.21566,7.09129-22.60345,6.86967s8.91949-10.74771 23.04667-8.64248c6.82836,1.01755 19.38683,11.55019 26.59231,11.30172 16.06619-.55401 31.35677-18.50381 40.77487-12.85294z"/>
</g>
</svg>
